<svg width="32" height="23" viewBox="0 0 32 23" fill="none" xmlns="http://www.w3.org/2000/svg">
<path d="M1.20133 20.6202H30.8C31.4629 20.6202 32 21.1529 32 21.8101C32 22.4125 31.5487 22.9104 30.9629 22.9891L30.8 23H1.20133C0.538602 23 0.00137629 22.4672 0.00137629 21.8101C0.00137629 21.2077 0.452798 20.7098 1.0385 20.6309L1.20133 20.6202ZM1.20133 10.3123H30.8C31.4629 10.3123 32 10.845 32 11.5022C32 12.1046 31.5487 12.6025 30.9629 12.6813L30.8 12.6921H1.20133C0.538602 12.6921 0.00137629 12.1593 0.00137629 11.5022C0.00137629 10.8998 0.452798 10.4019 1.0385 10.3231L1.20133 10.3123ZM1.19995 0H30.7988C31.4615 0 31.9987 0.532751 31.9987 1.18992C31.9987 1.79234 31.5472 2.29018 30.9616 2.36897L30.7988 2.37984H1.19995C0.537226 2.37984 0 1.84709 0 1.18992C0 0.587503 0.451422 0.0896562 1.03713 0.0108676L1.19995 0Z" fill="white"/>
</svg>
